<?xml version="1.0" encoding="utf-8"?>
<!-- Generator: Adobe Illustrator 15.0.2, SVG Export Plug-In . SVG Version: 6.00 Build 0)  -->
<!DOCTYPE svg PUBLIC "-//W3C//DTD SVG 1.1//EN" "http://www.w3.org/Graphics/SVG/1.1/DTD/svg11.dtd">
<svg version="1.1" id="Layer_1" xmlns="http://www.w3.org/2000/svg" xmlns:xlink="http://www.w3.org/1999/xlink" x="0px" y="0px"
	 width="125px" height="125px" viewBox="0 0 125 125" enable-background="new 0 0 125 125" xml:space="preserve">
<path fill="#FFFFFF" d="M105.793,37.562H35.479c-1.742,0-4.064,1.109-5.158,2.465L14.894,59.116
	c-1.097,1.355-1.14,3.603-0.088,4.997l15.608,20.791c1.043,1.391,3.323,2.533,5.065,2.533h70.313c1.737,0,3.162-1.426,3.162-3.174
	V40.729C108.955,38.991,107.531,37.562,105.793,37.562z M81.1,68.585l-4.477,4.472l-6.471-6.468l-6.467,6.468l-4.472-4.472
	l6.468-6.471l-6.468-6.472l4.472-4.475l6.467,6.471l6.471-6.471l4.477,4.475l-6.468,6.472L81.1,68.585z"/>
<rect fill="none" width="125" height="125"/>
</svg>
