<?xml version="1.0" encoding="utf-8"?>
<!-- Generator: Adobe Illustrator 16.0.0, SVG Export Plug-In . SVG Version: 6.00 Build 0)  -->
<!DOCTYPE svg PUBLIC "-//W3C//DTD SVG 1.1//EN" "http://www.w3.org/Graphics/SVG/1.1/DTD/svg11.dtd">
<svg version="1.1" id="Layer_1" xmlns="http://www.w3.org/2000/svg" xmlns:xlink="http://www.w3.org/1999/xlink" x="0px" y="0px"
	 width="125px" height="125px" viewBox="0 0 125 125" enable-background="new 0 0 125 125" xml:space="preserve">
<g>
	<path d="M60.744,69.556c-1.146,0.57-2.353,1.062-3.52,1.537l-0.996,0.409c-0.613,0.191-1.219,0.387-1.811,0.579
		c-0.857,0.278-1.688,0.549-2.482,0.777c-0.67,0.151-1.311,0.301-1.922,0.444c-0.676,0.158-1.316,0.308-1.956,0.45
		c-0.644,0.151-1.279,0.249-1.896,0.343c-0.41,0.063-0.794,0.123-1.054,0.174l-5.171,0.816l0.214,6.062l2.431,0.19
		c0.008,0,1.021,0.079,2.873,0.239c0.278,0.014,0.572,0.042,0.887,0.07c0.666,0.061,1.496,0.136,2.438,0.136l4.427-0.076
		l0.127-0.006c1.145-0.077,2.356-0.206,3.633-0.344l1.554-0.164l1.173-0.202c1.568-0.279,3.189-0.567,4.926-1.025
		c1.99-0.55,4.107-1.164,6.222-2.089c1.689-0.611,3.253-1.413,4.765-2.19c0.447-0.23,0.896-0.46,1.35-0.687l0.836-0.509
		c1.685-1.06,3.428-2.154,5.045-3.456c1.57-1.127,2.928-2.373,4.24-3.578l1.712-1.639c1.164-1.165,2.367-2.369,3.437-3.596
		c0.992-1.027,1.834-2.079,2.578-3.009c0.334-0.416,0.658-0.824,0.988-1.216l0.683-0.96c0.79-1.131,1.537-2.198,2.104-3.248
		c0.063-0.113,0.115-0.219,0.178-0.33l11.994,3.428L100.619,16.42L70.637,45.423l10.75,3.071c-0.06,0.133-0.115,0.251-0.176,0.387
		c-0.24,0.46-0.474,0.944-0.713,1.441c-0.377,0.782-0.766,1.591-1.209,2.336l-0.062,0.11c-0.689,1.293-1.613,2.596-2.504,3.821
		l-0.359,0.45c-0.899,1.125-1.828,2.287-2.851,3.271l-0.133,0.138c-0.759,0.84-1.651,1.62-2.597,2.447
		c-0.393,0.344-0.787,0.69-1.178,1.043c-0.382,0.283-0.76,0.57-1.139,0.859c-1.042,0.796-2.027,1.549-3.051,2.131l-0.207,0.13
		c-0.97,0.674-2.037,1.228-3.168,1.813C61.576,69.113,61.114,69.354,60.744,69.556z"/>
	<path d="M106,75.577c-2.831,0-5,2.295-5,5.126V98H24V38h36.497c2.831,0,5.126-2.169,5.126-5s-2.295-5-5.126-5H14v81h97V80.703
		C111,77.873,108.831,75.577,106,75.577z"/>
</g>
</svg>
