<?xml version="1.0" encoding="utf-8"?>
<!-- Generator: Adobe Illustrator 16.0.0, SVG Export Plug-In . SVG Version: 6.00 Build 0)  -->
<!DOCTYPE svg PUBLIC "-//W3C//DTD SVG 1.1//EN" "http://www.w3.org/Graphics/SVG/1.1/DTD/svg11.dtd">
<svg version="1.1" id="Layer_1" xmlns="http://www.w3.org/2000/svg" xmlns:xlink="http://www.w3.org/1999/xlink" x="0px" y="0px"
	 width="125px" height="125px" viewBox="0 0 125 125" enable-background="new 0 0 125 125" xml:space="preserve">
<g>
	<path d="M23.026,108.016c-1.531,0-5.598,0-8.227-2.99c-1.437-1.633-2.101-3.81-1.822-5.972c0.701-5.459,5.515-9.095,10.611-12.943
		c0.561-0.425,1.177-0.89,1.795-1.367c-5.823-7.01-8.963-15.404-8.963-24.241c0-22.902,21.457-41.534,47.831-41.534
		c26.375,0,47.832,18.632,47.832,41.534c0,22.903-21.457,41.537-47.832,41.537c-2.212,0-4.492-0.146-6.798-0.436
		C51.706,103.075,31.752,108.016,23.026,108.016z M64.252,32.714c-18.794,0-34.085,12.465-34.085,27.788
		c0,7.148,3.362,13.956,9.469,19.17l4.672,3.988l-3.442,5.089c-0.772,1.142-1.725,2.217-2.787,3.245
		c6.11-1.266,12.612-2.825,17.228-4.033l1.366-0.357l1.396,0.21c2.117,0.318,4.197,0.479,6.183,0.479
		c18.795,0,34.085-12.467,34.085-27.791C98.338,45.179,83.047,32.714,64.252,32.714z"/>
</g>
</svg>
